<svg xmlns="http://www.w3.org/2000/svg" xmlns:xlink="http://www.w3.org/1999/xlink" width="932" height="248" fill="#000" fill-opacity="1" stroke="#000" stroke-dasharray="none" stroke-dashoffset="0" stroke-linecap="square" stroke-linejoin="miter" stroke-miterlimit="10" stroke-opacity="1" stroke-width="1" color-interpolation="auto" color-rendering="auto" font-family="'Dialog'" font-size="12" font-style="normal" font-weight="normal" image-rendering="auto" shape-rendering="auto" text-rendering="auto"><g><defs id="defs1"><clipPath id="clipPath1" clipPathUnits="userSpaceOnUse"><path d="M0 0 L932 0 L932 248 L0 248 L0 0 Z"/></clipPath><clipPath id="clipPath2" clipPathUnits="userSpaceOnUse"><path d="M-98 -119 L834 -119 L834 129 L-98 129 L-98 -119 Z"/></clipPath></defs><g fill="#95D16F" stroke="#95D16F" transform="matrix(1,0,0,1,98,119)"><rect width="146" height="69" x="11" y="-104" stroke="none" clip-path="url(#clipPath2)" rx="4" ry="4"/></g><g stroke-linecap="butt" stroke-miterlimit="1.45" font-family="'Arial'" font-size="18"><text x="39.47" y="-63.26" stroke="none" clip-path="url(#clipPath2)" transform="matrix(1,0,0,1,98,119)" xml:space="preserve">Executable</text></g><g fill="#007042" stroke="#007042" stroke-linecap="butt" stroke-miterlimit="1.45" stroke-width="3" transform="matrix(1,0,0,1,98,119)"><rect width="146" height="69" x="11" y="-104" fill="none" clip-path="url(#clipPath2)" rx="4" ry="4"/></g><g fill="#95D16F" stroke="#95D16F" transform="matrix(1,0,0,1,98,119)"><rect width="146" height="69" x="484" y="-104" stroke="none" clip-path="url(#clipPath2)" rx="4" ry="4"/></g><g stroke-linecap="butt" stroke-miterlimit="1.45" font-family="'Arial'" font-size="18"><text x="529.49" y="-63.26" stroke="none" clip-path="url(#clipPath2)" transform="matrix(1,0,0,1,98,119)" xml:space="preserve">Library</text></g><g fill="#007042" stroke="#007042" stroke-linecap="butt" stroke-miterlimit="1.45" stroke-width="3" transform="matrix(1,0,0,1,98,119)"><rect width="146" height="69" x="484" y="-104" fill="none" clip-path="url(#clipPath2)" rx="4" ry="4"/></g><g fill="#95D16F" stroke="#95D16F" transform="matrix(1,0,0,1,98,119)"><rect width="146" height="69" x="106" y="44.5" stroke="none" clip-path="url(#clipPath2)" rx="4" ry="4"/></g><g stroke-linecap="butt" stroke-miterlimit="1.45" font-family="'Arial'" font-size="18"><text x="125.479" y="75.186" stroke="none" clip-path="url(#clipPath2)" transform="matrix(1,0,0,1,98,119)" xml:space="preserve">Windows x64</text><text x="154.487" y="95.295" stroke="none" clip-path="url(#clipPath2)" transform="matrix(1,0,0,1,98,119)" xml:space="preserve">binary</text></g><g fill="#007042" stroke="#007042" stroke-linecap="butt" stroke-miterlimit="1.45" stroke-width="3" transform="matrix(1,0,0,1,98,119)"><rect width="146" height="69" x="106" y="44.5" fill="none" clip-path="url(#clipPath2)" rx="4" ry="4"/></g><g fill="#95D16F" stroke="#95D16F" transform="matrix(1,0,0,1,98,119)"><rect width="146" height="69" x="-83" y="44.5" stroke="none" clip-path="url(#clipPath2)" rx="4" ry="4"/></g><g stroke-linecap="butt" stroke-miterlimit="1.45" font-family="'Arial'" font-size="18"><text x="-61.535" y="75.186" stroke="none" clip-path="url(#clipPath2)" transform="matrix(1,0,0,1,98,119)" xml:space="preserve">Linux amd64</text><text x="-34.513" y="95.295" stroke="none" clip-path="url(#clipPath2)" transform="matrix(1,0,0,1,98,119)" xml:space="preserve">binary</text></g><g fill="#007042" stroke="#007042" stroke-linecap="butt" stroke-miterlimit="1.45" stroke-width="3" transform="matrix(1,0,0,1,98,119)"><rect width="146" height="69" x="-83" y="44.5" fill="none" clip-path="url(#clipPath2)" rx="4" ry="4"/></g><g fill="#95D16F" stroke="#95D16F" transform="matrix(1,0,0,1,98,119)"><rect width="146" height="69" x="295" y="44.5" stroke="none" clip-path="url(#clipPath2)" rx="4" ry="4"/></g><g stroke-linecap="butt" stroke-miterlimit="1.45" font-family="'Arial'" font-size="18"><text x="316.465" y="75.186" stroke="none" clip-path="url(#clipPath2)" transform="matrix(1,0,0,1,98,119)" xml:space="preserve">Linux amd64</text><text x="319.981" y="95.295" stroke="none" clip-path="url(#clipPath2)" transform="matrix(1,0,0,1,98,119)" xml:space="preserve">static binary</text></g><g fill="#007042" stroke="#007042" stroke-linecap="butt" stroke-miterlimit="1.45" stroke-width="3" transform="matrix(1,0,0,1,98,119)"><rect width="146" height="69" x="295" y="44.5" fill="none" clip-path="url(#clipPath2)" rx="4" ry="4"/></g><g fill="#95D16F" stroke="#95D16F" transform="matrix(1,0,0,1,98,119)"><rect width="146" height="69" x="484" y="44.5" stroke="none" clip-path="url(#clipPath2)" rx="4" ry="4"/></g><g stroke-linecap="butt" stroke-miterlimit="1.45" font-family="'Arial'" font-size="18"><text x="505.465" y="75.186" stroke="none" clip-path="url(#clipPath2)" transform="matrix(1,0,0,1,98,119)" xml:space="preserve">Linux amd64</text><text x="502.468" y="95.295" stroke="none" clip-path="url(#clipPath2)" transform="matrix(1,0,0,1,98,119)" xml:space="preserve">shared binary</text></g><g fill="#007042" stroke="#007042" stroke-linecap="butt" stroke-miterlimit="1.45" stroke-width="3" transform="matrix(1,0,0,1,98,119)"><rect width="146" height="69" x="484" y="44.5" fill="none" clip-path="url(#clipPath2)" rx="4" ry="4"/></g><g fill="#95D16F" stroke="#95D16F" transform="matrix(1,0,0,1,98,119)"><rect width="146" height="69" x="673" y="44.5" stroke="none" clip-path="url(#clipPath2)" rx="4" ry="4"/></g><g stroke-linecap="butt" stroke-miterlimit="1.45" font-family="'Arial'" font-size="18"><text x="685.975" y="75.186" stroke="none" clip-path="url(#clipPath2)" transform="matrix(1,0,0,1,98,119)" xml:space="preserve">OS X universal</text><text x="691.468" y="95.295" stroke="none" clip-path="url(#clipPath2)" transform="matrix(1,0,0,1,98,119)" xml:space="preserve">shared binary</text></g><g fill="#007042" stroke="#007042" stroke-linecap="butt" stroke-miterlimit="1.45" stroke-width="3" transform="matrix(1,0,0,1,98,119)"><rect width="146" height="69" x="673" y="44.5" fill="none" clip-path="url(#clipPath2)" rx="4" ry="4"/><path fill="none" d="M106.0569 -35.0216 L149.5257 32.9269" clip-path="url(#clipPath2)"/><path stroke="none" d="M156.9354 44.5096 L155.1698 27.8323 L142.5342 35.9157 Z" clip-path="url(#clipPath2)"/><path fill="none" d="M62.1753 -35.0216 L19.1865 32.8915" clip-path="url(#clipPath2)"/><path stroke="none" d="M11.8323 44.5096 L26.1922 35.8467 L13.5179 27.824 Z" clip-path="url(#clipPath2)"/><path fill="none" d="M513.0953 -35.0035 L422.7018 36.02" clip-path="url(#clipPath2)"/><path stroke="none" d="M411.8899 44.5151 L428.3184 41.1451 L419.0511 29.3504 Z" clip-path="url(#clipPath2)"/><path fill="none" d="M557 -35.0216 L557 30.7596" clip-path="url(#clipPath2)"/><path stroke="none" d="M557 44.5096 L564.5 29.5096 L549.5 29.5096 Z" clip-path="url(#clipPath2)"/><path fill="none" d="M600.9047 -35.0035 L691.2982 36.02" clip-path="url(#clipPath2)"/><path stroke="none" d="M702.1101 44.5151 L694.949 29.3504 L685.6816 41.1451 Z" clip-path="url(#clipPath2)"/></g></g></svg>