<svg xmlns="http://www.w3.org/2000/svg" xmlns:xlink="http://www.w3.org/1999/xlink" width="984" height="464" fill="#000" fill-opacity="1" stroke="#000" stroke-dasharray="none" stroke-dashoffset="0" stroke-linecap="square" stroke-linejoin="miter" stroke-miterlimit="10" stroke-opacity="1" stroke-width="1" color-interpolation="auto" color-rendering="auto" font-family="'Dialog'" font-size="12" font-style="normal" font-weight="normal" image-rendering="auto" shape-rendering="auto" text-rendering="auto"><g><defs id="defs1"><clipPath id="clipPath1" clipPathUnits="userSpaceOnUse"><path d="M0 0 L984 0 L984 464 L0 464 L0 0 Z"/></clipPath><clipPath id="clipPath2" clipPathUnits="userSpaceOnUse"><path d="M32 138 L1016 138 L1016 602 L32 602 L32 138 Z"/></clipPath></defs><g stroke-linecap="butt" stroke-miterlimit="1.45" font-family="'Arial'" font-size="24"><text x="384.159" y="181.204" stroke="none" clip-path="url(#clipPath2)" transform="matrix(1,0,0,1,-32,-138)" xml:space="preserve">Util library</text></g><g fill="#999" stroke="#999" stroke-linecap="butt" stroke-miterlimit="1.45" transform="matrix(1,0,0,1,-32,-138)"><rect width="448.964" height="432.523" x="47.87" y="153.478" fill="none" clip-path="url(#clipPath2)" rx="4" ry="4"/></g><g fill="#95D16F" stroke="#95D16F" transform="matrix(1,0,0,1,-32,-138)"><rect width="146" height="69" x="577.5" y="180" stroke="none" clip-path="url(#clipPath2)" rx="4" ry="4"/></g><g stroke-linecap="butt" stroke-miterlimit="1.45" font-family="'Arial'" font-size="18"><text x="584.477" y="220.74" stroke="none" clip-path="url(#clipPath2)" transform="matrix(1,0,0,1,-32,-138)" xml:space="preserve">Windows source</text></g><g fill="#007042" stroke="#007042" stroke-linecap="butt" stroke-miterlimit="1.45" stroke-width="3" transform="matrix(1,0,0,1,-32,-138)"><rect width="146" height="69" x="577.5" y="180" fill="none" clip-path="url(#clipPath2)" rx="4" ry="4"/></g><g fill="#95D16F" stroke="#95D16F" transform="matrix(1,0,0,1,-32,-138)"><rect width="146" height="69" x="577.5" y="377" stroke="none" clip-path="url(#clipPath2)" rx="4" ry="4"/></g><g stroke-linecap="butt" stroke-miterlimit="1.45" font-family="'Arial'" font-size="18"><text x="601.479" y="417.74" stroke="none" clip-path="url(#clipPath2)" transform="matrix(1,0,0,1,-32,-138)" xml:space="preserve">Main source</text></g><g fill="#007042" stroke="#007042" stroke-linecap="butt" stroke-miterlimit="1.45" stroke-width="3" transform="matrix(1,0,0,1,-32,-138)"><rect width="146" height="69" x="577.5" y="377" fill="none" clip-path="url(#clipPath2)" rx="4" ry="4"/></g><g fill="#95D16F" stroke="#95D16F" transform="matrix(1,0,0,1,-32,-138)"><rect width="146" height="69" x="86.72" y="377" stroke="none" clip-path="url(#clipPath2)" rx="4" ry="4"/></g><g stroke-linecap="butt" stroke-miterlimit="1.45" font-family="'Arial'" font-size="18"><text x="112.207" y="417.74" stroke="none" clip-path="url(#clipPath2)" transform="matrix(1,0,0,1,-32,-138)" xml:space="preserve">Util source</text></g><g fill="#007042" stroke="#007042" stroke-linecap="butt" stroke-miterlimit="1.45" stroke-width="3" transform="matrix(1,0,0,1,-32,-138)"><rect width="146" height="69" x="86.72" y="377" fill="none" clip-path="url(#clipPath2)" rx="4" ry="4"/></g><g fill="#95D16F" stroke="#95D16F" transform="matrix(1,0,0,1,-32,-138)"><rect width="146" height="69" x="787" y="263" stroke="none" clip-path="url(#clipPath2)" rx="4" ry="4"/></g><g stroke-linecap="butt" stroke-miterlimit="1.45" font-family="'Arial'" font-size="18"><text x="818.49" y="293.685" stroke="none" clip-path="url(#clipPath2)" transform="matrix(1,0,0,1,-32,-138)" xml:space="preserve">Windows</text><text x="811.468" y="313.795" stroke="none" clip-path="url(#clipPath2)" transform="matrix(1,0,0,1,-32,-138)" xml:space="preserve">executable</text></g><g fill="#007042" stroke="#007042" stroke-linecap="butt" stroke-miterlimit="1.45" stroke-width="3" transform="matrix(1,0,0,1,-32,-138)"><rect width="146" height="69" x="787" y="263" fill="none" clip-path="url(#clipPath2)" rx="4" ry="4"/></g><g fill="#95D16F" stroke="#95D16F" transform="matrix(1,0,0,1,-32,-138)"><rect width="146" height="69" x="787" y="478" stroke="none" clip-path="url(#clipPath2)" rx="4" ry="4"/></g><g stroke-linecap="butt" stroke-miterlimit="1.45" font-family="'Arial'" font-size="18"><text x="787.452" y="518.74" stroke="none" clip-path="url(#clipPath2)" transform="matrix(1,0,0,1,-32,-138)" xml:space="preserve">Linux executable</text></g><g fill="#007042" stroke="#007042" stroke-linecap="butt" stroke-miterlimit="1.45" stroke-width="3" transform="matrix(1,0,0,1,-32,-138)"><rect width="146" height="69" x="787" y="478" fill="none" clip-path="url(#clipPath2)" rx="4" ry="4"/></g><g fill="#95D16F" stroke="#95D16F" transform="matrix(1,0,0,1,-32,-138)"><rect width="146" height="69" x="313.72" y="478" stroke="none" clip-path="url(#clipPath2)" rx="4" ry="4"/></g><g stroke-linecap="butt" stroke-miterlimit="1.45" font-family="'Arial'" font-size="18"><text x="330.185" y="508.685" stroke="none" clip-path="url(#clipPath2)" transform="matrix(1,0,0,1,-32,-138)" xml:space="preserve">Linux shared</text><text x="357.216" y="528.795" stroke="none" clip-path="url(#clipPath2)" transform="matrix(1,0,0,1,-32,-138)" xml:space="preserve">library</text></g><g fill="#007042" stroke="#007042" stroke-linecap="butt" stroke-miterlimit="1.45" stroke-width="3" transform="matrix(1,0,0,1,-32,-138)"><rect width="146" height="69" x="313.72" y="478" fill="none" clip-path="url(#clipPath2)" rx="4" ry="4"/></g><g fill="#95D16F" stroke="#95D16F" transform="matrix(1,0,0,1,-32,-138)"><rect width="146" height="69" x="308.72" y="270" stroke="none" clip-path="url(#clipPath2)" rx="4" ry="4"/></g><g stroke-linecap="butt" stroke-miterlimit="1.45" font-family="'Arial'" font-size="18"><text x="310.191" y="300.685" stroke="none" clip-path="url(#clipPath2)" transform="matrix(1,0,0,1,-32,-138)" xml:space="preserve">Windows shared</text><text x="352.216" y="320.795" stroke="none" clip-path="url(#clipPath2)" transform="matrix(1,0,0,1,-32,-138)" xml:space="preserve">library</text></g><g fill="#007042" stroke="#007042" stroke-linecap="butt" stroke-miterlimit="1.45" stroke-width="3" transform="matrix(1,0,0,1,-32,-138)"><rect width="146" height="69" x="308.72" y="270" fill="none" clip-path="url(#clipPath2)" rx="4" ry="4"/></g><g stroke-linecap="butt" stroke-miterlimit="1.45" font-family="'Arial'" font-size="24"><text x="834.615" y="181.204" stroke="none" clip-path="url(#clipPath2)" transform="matrix(1,0,0,1,-32,-138)" xml:space="preserve">CLI executable</text></g><g fill="#999" stroke="#999" stroke-linecap="butt" stroke-miterlimit="1.45" transform="matrix(1,0,0,1,-32,-138)"><rect width="448.964" height="432.523" x="551.753" y="153.478" fill="none" clip-path="url(#clipPath2)" rx="4" ry="4"/><path fill="none" stroke="#007042" stroke-width="3" d="M713.8973 377.0022 L784.5374 338.5632" clip-path="url(#clipPath2)"/><path fill="#007042" stroke="none" stroke-width="3" d="M796.6151 331.9911 L779.8547 332.5728 L787.0242 345.7485 Z" clip-path="url(#clipPath2)"/><path fill="none" stroke="#007042" stroke-width="3" d="M723.513 243.4264 L774.2081 263.5109" clip-path="url(#clipPath2)"/><path fill="#007042" stroke="none" stroke-width="3" d="M786.9915 268.5754 L775.8085 256.0777 L770.2836 270.0232 Z" clip-path="url(#clipPath2)"/><path fill="none" stroke="#007042" stroke-width="3" d="M721.2625 445.6146 L776.8568 472.4166" clip-path="url(#clipPath2)"/><path fill="#007042" stroke="none" stroke-width="3" d="M789.2426 478.3878 L778.9878 465.1179 L772.4738 478.6297 Z" clip-path="url(#clipPath2)"/><path fill="none" stroke="#007042" stroke-width="3" d="M232.2921 443.7899 L301.5806 474.6187" clip-path="url(#clipPath2)"/><path fill="#007042" stroke="none" stroke-width="3" d="M314.1432 480.2083 L303.4874 467.2583 L297.3897 480.963 Z" clip-path="url(#clipPath2)"/><path fill="none" stroke="#007042" stroke-width="3" d="M459.7165 512.5 L773.2979 512.5" clip-path="url(#clipPath2)"/><path fill="#007042" stroke="none" stroke-width="3" d="M787.0479 512.5 L772.0479 505 L772.0479 520 Z" clip-path="url(#clipPath2)"/><path fill="none" stroke="#007042" stroke-width="3" d="M230.4768 377.3964 L298.6229 344.5512" clip-path="url(#clipPath2)"/><path fill="#007042" stroke="none" stroke-width="3" d="M311.0092 338.5812 L294.2405 338.3377 L300.7532 351.8501 Z" clip-path="url(#clipPath2)"/><path fill="none" stroke="#007042" stroke-width="3" d="M454.7287 303.4315 L773.2809 298.7692" clip-path="url(#clipPath2)"/><path fill="#007042" stroke="none" stroke-width="3" d="M787.0294 298.568 L771.9213 291.2883 L772.1407 306.2867 Z" clip-path="url(#clipPath2)"/></g></g></svg>